<?xml version="1.0" standalone="no"?>
<!DOCTYPE svg PUBLIC "-//W3C//DTD SVG 20010904//EN"
 "http://www.w3.org/TR/2001/REC-SVG-20010904/DTD/svg10.dtd">
<svg version="1.0" xmlns="http://www.w3.org/2000/svg"
 width="225.000000pt" height="225.000000pt" viewBox="0 0 225.000000 225.000000"
 preserveAspectRatio="xMidYMid meet">

<g transform="translate(0.000000,225.000000) scale(0.100000,-0.100000)"
fill="#000000" stroke="none">
<path d="M932 2135 c-170 -38 -302 -98 -429 -194 -189 -142 -311 -329 -380
-581 -25 -93 -25 -377 0 -470 106 -385 354 -642 732 -757 83 -25 104 -27 265
-27 155 -1 185 2 260 23 378 105 640 372 747 761 14 51 17 102 17 240 0 161
-3 182 -28 265 -91 304 -277 525 -551 656 -149 71 -230 90 -415 95 -112 3
-173 0 -218 -11z m296 -507 c114 -54 155 -198 88 -313 -84 -143 -298 -143
-382 0 -54 92 -41 198 32 272 72 72 165 87 262 41z m97 -572 c76 -21 169 -66
218 -107 56 -46 77 -95 77 -177 0 -76 -19 -116 -73 -156 -28 -20 -39 -21 -410
-21 -364 0 -384 1 -416 20 -55 32 -75 67 -79 141 -8 118 39 189 168 254 103
52 197 70 335 66 66 -2 147 -11 180 -20z"/>
</g>
</svg>
